<svg
  xmlns="http://www.w3.org/2000/svg"
  xmlns:xlink="http://www.w3.org/1999/xlink"
  width="400"
  height="400"
  version="1.1"
  style="fill: #4D7EC0;"
  >
  <g>
    <path
      d="M47.619 24.671 C -24.460 73.253,36.746 183.406,113.947 144.040 C 176.272 112.260,157.547 22.126,87.259 15.577 C 68.727 13.851,61.063 15.609,47.619 24.671 M177.951 58.333 C 179.530 64.226,180.852 72.798,180.887 77.381 C 180.944 84.693,186.353 85.747,225.000 85.983 C 304.751 86.470,313.530 95.249,314.017 175.000 C 314.253 213.647,315.307 219.056,322.619 219.113 C 327.202 219.148,335.774 220.470,341.667 222.049 C 366.189 228.621,353.202 99.869,326.667 73.333 C 300.131 46.798,171.379 33.811,177.951 58.333 M47.619 218.258 C 47.619 328.550,71.450 352.381,181.742 352.381 C 224.196 352.381,224.872 352.201,222.049 341.667 C 220.470 335.774,219.148 327.202,219.113 322.619 C 219.056 315.307,213.647 314.253,175.000 314.017 C 95.249 313.530,86.470 304.751,85.983 225.000 C 85.747 186.353,84.693 180.944,77.381 180.887 C 72.798 180.852,64.226 179.530,58.333 177.951 C 47.799 175.128,47.619 175.804,47.619 218.258 M279.808 258.162 C 258.176 270.701,244.890 300.384,249.152 326.650 C 259.964 393.277,347.248 407.486,377.374 347.524 C 408.496 285.578,340.288 223.105,279.808 258.162"
    >
    </path>
  </g>
</svg>